P3
100 50
255
0 0 0 0 0 0 0 0 0 0 0 0 0 0 0 0 0 0 0 0 0 0 0 0 0 0 0 0 0 0 0 0 0 
0 0 0 0 0 0 0 0 0 0 0 0 0 0 0 0 0 0 0 0 0 0 0 0 0 0 0 0 0 0 0 0 0 
2 25 12 2 25 12 2 25 12 2 25 12 2 25 12 2 25 12 2 25 12 2 25 12 17 172 86 17 171 85 16 169 84 
16 167 83 16 164 82 16 160 80 15 156 78 15 152 76 14 147 73 14 142 71 13 136 68 2 25 12 2 25 12 2 25 12 
2 25 12 2 25 12 2 25 12 0 0 0 0 0 0 0 0 0 0 0 0 0 0 0 0 0 0 0 0 0 0 0 0 
0 0 0 0 0 0 0 0 0 0 0 0 0 0 0 0 0 0 0 0 0 0 0 0 0 0 0 0 0 0 0 0 0 
0 0 0 0 0 0 0 0 0 0 0 0 0 0 0 0 0 0 0 0 0 0 0 0 0 0 0 0 0 0 0 0 0 
0 0 0 0 0 0 0 0 0 0 0 0 0 0 0 0 0 0 0 0 0 0 0 0 0 0 0 0 0 0 0 0 0 
0 0 0 0 0 0 0 0 0 0 0 0 0 0 0 0 0 0 0 0 0 0 0 0 0 0 0 0 0 0 0 0 0 
0 0 0 
0 0 0 0 0 0 0 0 0 0 0 0 0 0 0 0 0 0 0 0 0 0 0 0 0 0 0 0 0 0 0 0 0 
0 0 0 0 0 0 0 0 0 0 0 0 0 0 0 0 0 0 0 0 0 0 0 0 0 0 0 0 0 0 0 0 0 
2 25 12 2 25 12 2 25 12 2 25 12 2 25 12 2 25 12 2 25 12 17 176 88 17 175 87 17 174 87 17 172 86 
17 170 85 16 167 83 16 164 82 16 160 80 15 155 77 15 151 75 14 145 72 13 139 69 13 132 66 12 125 62 2 25 12 
2 25 12 2 25 12 2 25 12 2 25 12 0 0 0 0 0 0 0 0 0 0 0 0 0 0 0 0 0 0 0 0 0 
0 0 0 0 0 0 0 0 0 0 0 0 0 0 0 0 0 0 0 0 0 0 0 0 0 0 0 0 0 0 0 0 0 
0 0 0 0 0 0 0 0 0 0 0 0 0 0 0 0 0 0 0 0 0 0 0 0 0 0 0 0 0 0 0 0 0 
0 0 0 0 0 0 0 0 0 0 0 0 0 0 0 0 0 0 0 0 0 0 0 0 0 0 0 0 0 0 0 0 0 
0 0 0 0 0 0 0 0 0 0 0 0 0 0 0 0 0 0 0 0 0 0 0 0 0 0 0 0 0 0 0 0 0 
0 0 0 
0 0 0 0 0 0 0 0 0 0 0 0 0 0 0 0 0 0 0 0 0 0 0 0 0 0 0 0 0 0 0 0 0 
0 0 0 0 0 0 0 0 0 0 0 0 0 0 0 0 0 0 0 0 0 0 0 0 0 0 0 0 0 0 2 25 12 
2 25 12 2 25 12 2 25 12 2 25 12 2 25 12 2 25 12 18 180 90 17 179 89 17 178 89 17 177 88 17 175 87 
17 173 86 17 170 85 16 167 83 16 163 81 15 159 79 15 154 77 14 148 74 14 142 71 13 135 67 12 128 64 11 119 59 
2 25 12 2 25 12 2 25 12 2 25 12 2 25 12 0 0 0 0 0 0 0 0 0 0 0 0 0 0 0 0 0 0 
0 0 0 0 0 0 0 0 0 0 0 0 0 0 0 0 0 0 0 0 0 0 0 0 0 0 0 0 0 0 0 0 0 
0 0 0 0 0 0 0 0 0 0 0 0 0 0 0 0 0 0 0 0 0 0 0 0 0 0 0 0 0 0 0 0 0 
0 0 0 0 0 0 0 0 0 0 0 0 0 0 0 0 0 0 0 0 0 0 0 0 0 0 0 0 0 0 0 0 0 
0 0 0 0 0 0 0 0 0 0 0 0 0 0 0 0 0 0 0 0 0 0 0 0 0 0 0 0 0 0 0 0 0 
0 0 0 
0 0 0 0 0 0 0 0 0 0 0 0 0 0 0 0 0 0 0 0 0 0 0 0 0 0 0 0 0 0 0 0 0 
0 0 0 0 0 0 0 0 0 0 0 0 0 0 0 0 0 0 0 0 0 0 0 0 0 0 0 0 0 0 2 25 12 
2 25 12 2 25 12 2 25 12 2 25 12 2 25 12 18 182 91 18 182 91 18 182 91 18 181 90 18 180 90 17 178 89 
17 176 88 17 173 86 17 170 85 16 166 83 16 161 80 15 156 78 15 151 75 14 145 72 13 138 69 13 130 65 12 122 61 
11 112 56 2 25 12 2 25 12 2 25 12 2 25 12 0 0 0 0 0 0 0 0 0 0 0 0 0 0 0 0 0 0 
0 0 0 0 0 0 0 0 0 0 0 0 0 0 0 0 0 0 0 0 0 0 0 0 0 0 0 0 0 0 0 0 0 
0 0 0 0 0 0 0 0 0 0 0 0 0 0 0 0 0 0 0 0 0 0 0 0 0 0 0 0 0 0 0 0 0 
0 0 0 0 0 0 0 0 0 0 0 0 0 0 0 0 0 0 0 0 0 0 0 0 0 0 0 0 0 0 0 0 0 
0 0 0 0 0 0 0 0 0 0 0 0 0 0 0 0 0 0 0 0 0 0 0 0 0 0 0 0 0 0 0 0 0 
0 0 0 
0 0 0 0 0 0 0 0 0 0 0 0 0 0 0 0 0 0 0 0 0 0 0 0 0 0 0 0 0 0 0 0 0 
0 0 0 0 0 0 0 0 0 0 0 0 0 0 0 0 0 0 0 0 0 0 0 0 0 0 0 2 25 12 2 25 12 
2 25 12 2 25 12 2 25 12 2 25 12 18 184 92 18 185 92 18 185 92 18 185 92 18 184 92 18 182 91 18 181 90 
17 178 89 17 176 88 17 172 86 16 169 84 16 164 82 15 159 79 15 154 77 14 147 73 14 140 70 13 133 66 12 124 62 
11 114 57 2 25 12 2 25 12 2 25 12 2 25 12 0 0 0 0 0 0 0 0 0 0 0 0 0 0 0 0 0 0 
0 0 0 0 0 0 0 0 0 0 0 0 0 0 0 0 0 0 0 0 0 0 0 0 0 0 0 0 0 0 0 0 0 
0 0 0 0 0 0 0 0 0 0 0 0 0 0 0 0 0 0 0 0 0 0 0 0 0 0 0 0 0 0 0 0 0 
0 0 0 0 0 0 0 0 0 0 0 0 0 0 0 0 0 0 0 0 0 0 0 0 0 0 0 0 0 0 0 0 0 
0 0 0 0 0 0 0 0 0 0 0 0 0 0 0 0 0 0 0 0 0 0 0 0 0 0 0 0 0 0 0 0 0 
0 0 0 
0 0 0 0 0 0 0 0 0 0 0 0 0 0 0 0 0 0 0 0 0 0 0 0 0 0 0 0 0 0 0 0 0 
0 0 0 0 0 0 0 0 0 0 0 0 0 0 0 0 0 0 0 0 0 0 0 0 0 0 0 2 25 12 2 25 12 
2 25 12 2 25 12 2 25 12 2 25 12 18 186 93 18 187 93 18 187 93 18 187 93 18 186 93 18 185 92 18 183 91 
18 181 90 17 178 89 17 175 87 17 171 85 16 167 83 16 162 81 15 156 78 15 150 75 14 143 71 13 135 67 12 126 63 
11 116 58 10 105 52 2 25 12 2 25 12 2 25 12 2 25 12 0 0 0 0 0 0 0 0 0 0 0 0 0 0 0 
0 0 0 0 0 0 0 0 0 0 0 0 0 0 0 0 0 0 0 0 0 0 0 0 0 0 0 0 0 0 0 0 0 
0 0 0 0 0 0 0 0 0 0 0 0 0 0 0 0 0 0 0 0 0 0 0 0 0 0 0 0 0 0 0 0 0 
0 0 0 0 0 0 0 0 0 0 0 0 0 0 0 0 0 0 0 0 0 0 0 0 0 0 0 0 0 0 0 0 0 
0 0 0 0 0 0 0 0 0 0 0 0 0 0 0 0 0 0 0 0 0 0 0 0 0 0 0 0 0 0 0 0 0 
0 0 0 
0 0 0 0 0 0 0 0 0 0 0 0 0 0 0 0 0 0 0 0 0 0 0 0 0 0 0 0 0 0 0 0 0 
0 0 0 0 0 0 0 0 0 0 0 0 0 0 0 0 0 0 0 0 0 0 0 0 0 0 0 2 25 12 2 25 12 
2 25 12 2 25 12 2 25 12 18 186 93 18 188 94 18 189 94 18 189 94 18 189 94 18 188 94 18 187 93 18 186 93 
18 183 91 18 181 90 17 178 89 17 174 87 16 169 84 16 164 82 15 159 79 15 152 76 14 145 72 13 137 68 12 127 63 
11 117 58 10 106 53 2 25 12 2 25 12 2 25 12 2 25 12 0 0 0 0 0 0 0 0 0 0 0 0 0 0 0 
0 0 0 0 0 0 0 0 0 0 0 0 0 0 0 0 0 0 0 0 0 0 0 0 0 0 0 0 0 0 0 0 0 
0 0 0 0 0 0 0 0 0 0 0 0 0 0 0 0 0 0 0 0 0 0 0 0 0 0 0 0 0 0 0 0 0 
0 0 0 0 0 0 0 0 0 0 0 0 0 0 0 0 0 0 0 0 0 0 0 0 0 0 0 0 0 0 0 0 0 
0 0 0 0 0 0 0 0 0 0 0 0 0 0 0 0 0 0 0 0 0 0 0 0 0 0 0 0 0 0 0 0 0 
0 0 0 
0 0 0 0 0 0 0 0 0 0 0 0 0 0 0 0 0 0 0 0 0 0 0 0 0 0 0 0 0 0 0 0 0 
0 0 0 0 0 0 0 0 0 0 0 0 0 0 0 0 0 0 0 0 0 0 0 0 0 0 0 2 25 12 2 25 12 
2 25 12 2 25 12 2 25 12 18 187 93 18 189 94 19 190 95 19 191 95 19 191 95 19 190 95 18 189 94 18 188 94 
18 186 93 18 183 91 18 180 90 17 176 88 17 172 86 16 167 83 16 161 80 15 154 77 14 147 73 13 138 69 12 129 64 
11 118 59 10 106 53 9 93 46 2 25 12 2 25 12 2 25 12 0 0 0 0 0 0 0 0 0 0 0 0 0 0 0 
0 0 0 0 0 0 0 0 0 0 0 0 0 0 0 0 0 0 0 0 0 0 0 0 0 0 0 0 0 0 0 0 0 
0 0 0 0 0 0 0 0 0 0 0 0 0 0 0 0 0 0 0 0 0 0 0 0 0 0 0 0 0 0 0 0 0 
0 0 0 0 0 0 0 0 0 0 0 0 0 0 0 0 0 0 0 0 0 0 0 0 0 0 0 0 0 0 0 0 0 
0 0 0 0 0 0 0 0 0 0 0 0 0 0 0 0 0 0 0 0 0 0 0 0 0 0 0 0 0 0 0 0 0 
0 0 0 
0 0 0 0 0 0 0 0 0 0 0 0 0 0 0 0 0 0 0 0 0 0 0 0 0 0 0 0 0 0 0 0 0 
0 0 0 0 0 0 0 0 0 0 0 0 0 0 0 0 0 0 0 0 0 0 0 0 0 0 0 2 25 12 2 25 12 
2 25 12 2 25 12 2 25 12 18 188 94 19 190 95 19 191 95 19 192 96 19 192 96 19 192 96 19 191 95 19 190 95 
18 188 94 18 185 92 18 182 91 17 179 89 17 174 87 16 169 84 16 163 81 15 156 78 14 149 74 14 140 70 13 130 65 
11 119 59 10 106 53 9 92 46 2 25 12 2 25 12 2 25 12 0 0 0 0 0 0 0 0 0 0 0 0 0 0 0 
0 0 0 0 0 0 0 0 0 0 0 0 0 0 0 0 0 0 0 0 0 0 0 0 0 0 0 0 0 0 0 0 0 
0 0 0 0 0 0 0 0 0 0 0 0 0 0 0 0 0 0 0 0 0 0 0 0 0 0 0 0 0 0 0 0 0 
0 0 0 0 0 0 0 0 0 0 0 0 0 0 0 0 0 0 0 0 0 0 0 0 0 0 0 0 0 0 0 0 0 
0 0 0 0 0 0 0 0 0 0 0 0 0 0 0 0 0 0 0 0 0 0 0 0 0 0 0 0 0 0 0 0 0 
0 0 0 
0 0 0 0 0 0 0 0 0 0 0 0 0 0 0 0 0 0 0 0 0 0 0 0 0 0 0 0 0 0 0 0 0 
0 0 0 0 0 0 0 0 0 0 0 0 0 0 0 0 0 0 0 0 0 0 0 0 0 0 0 2 25 12 2 25 12 
2 25 12 2 25 12 2 25 12 18 189 94 19 191 95 19 192 96 19 193 96 19 194 97 19 194 97 19 193 96 19 192 96 
19 190 95 18 188 94 18 185 92 18 181 90 17 177 88 17 171 85 16 165 82 15 158 79 15 150 75 14 141 70 13 131 65 
11 119 59 10 106 53 9 91 45 2 25 12 2 25 12 2 25 12 0 0 0 0 0 0 0 0 0 0 0 0 0 0 0 
0 0 0 0 0 0 0 0 0 0 0 0 0 0 0 0 0 0 0 0 0 0 0 0 0 0 0 0 0 0 0 0 0 
0 0 0 0 0 0 0 0 0 0 0 0 0 0 0 0 0 0 0 0 0 0 0 0 0 0 0 0 0 0 0 0 0 
0 0 0 0 0 0 0 0 0 0 0 0 0 0 0 0 0 0 0 0 0 0 0 0 0 0 0 0 0 0 0 0 0 
0 0 0 0 0 0 0 0 0 0 0 0 0 0 0 0 0 0 0 0 0 0 0 0 0 0 0 0 0 0 0 0 0 
0 0 0 
0 0 0 0 0 0 0 0 0 0 0 0 0 0 0 0 0 0 0 0 0 0 0 0 0 0 0 0 0 0 0 0 0 
0 0 0 0 0 0 0 0 0 0 0 0 0 0 0 0 0 0 0 0 0 0 0 0 0 0 0 2 25 12 2 25 12 
2 25 12 2 25 12 2 25 12 18 189 94 19 191 95 19 193 96 19 194 97 19 195 97 19 195 97 19 195 97 19 194 97 
19 192 96 19 190 95 18 187 93 18 183 91 17 179 89 17 174 87 16 168 84 16 160 80 15 152 76 14 142 71 13 131 65 
11 119 59 10 105 52 8 89 44 2 25 12 2 25 12 2 29 14 0 0 0 0 0 0 0 0 0 0 0 0 0 0 0 
0 0 0 0 0 0 0 0 0 0 0 0 0 0 0 0 0 0 0 0 0 0 0 0 0 0 0 0 0 0 0 0 0 
0 0 0 0 0 0 0 0 0 0 0 0 0 0 0 0 0 0 0 0 0 0 0 0 0 0 0 0 0 0 0 0 0 
0 0 0 0 0 0 0 0 0 0 0 0 0 0 0 0 0 0 0 0 0 0 0 0 0 0 0 0 0 0 0 0 0 
0 0 0 0 0 0 0 0 0 0 0 0 0 0 0 0 0 0 0 0 0 0 0 0 0 0 0 0 0 0 0 0 0 
0 0 0 
0 0 0 0 0 0 0 0 0 0 0 0 0 0 0 0 0 0 0 0 0 0 0 0 0 0 0 0 0 0 0 0 0 
0 0 0 0 0 0 0 0 0 0 0 0 0 0 0 0 0 0 0 0 0 0 0 0 0 0 0 2 25 12 2 25 12 
2 25 12 2 25 12 2 25 12 18 188 94 19 191 95 19 193 96 19 195 97 19 196 98 19 196 98 19 196 98 19 195 97 
19 194 97 19 192 96 18 189 94 18 186 93 18 181 90 17 176 88 17 170 85 16 162 81 15 153 76 14 143 71 13 131 65 
11 118 59 10 103 51 8 85 42 2 25 12 2 25 12 3 39 19 0 0 0 0 0 0 0 0 0 0 0 0 0 0 0 
0 0 0 0 0 0 0 0 0 0 0 0 0 0 0 0 0 0 0 0 0 0 0 0 0 0 0 0 0 0 0 0 0 
0 0 0 0 0 0 0 0 0 0 0 0 0 0 0 0 0 0 0 0 0 0 0 0 0 0 0 0 0 0 0 0 0 
0 0 0 0 0 0 0 0 0 0 0 0 0 0 0 0 0 0 0 0 0 0 0 0 0 0 0 0 0 0 0 0 0 
0 0 0 0 0 0 0 0 0 0 0 0 0 0 0 0 0 0 0 0 0 0 0 0 0 0 0 0 0 0 0 0 0 
0 0 0 
0 0 0 0 0 0 0 0 0 0 0 0 0 0 0 0 0 0 0 0 0 0 0 0 0 0 0 0 0 0 0 0 0 
0 0 0 0 0 0 0 0 0 0 0 0 0 0 0 0 0 0 0 0 0 0 0 0 0 0 0 0 0 0 2 25 12 
2 25 12 2 25 12 2 25 12 18 187 93 19 190 95 19 193 96 19 195 97 19 196 98 19 197 98 19 197 98 19 197 98 
19 196 98 19 194 97 19 192 96 18 188 94 18 184 92 17 178 89 17 172 86 16 164 82 15 155 77 14 144 72 13 131 65 
11 116 58 10 100 50 8 80 40 2 25 12 2 25 12 5 54 27 0 0 0 0 0 0 0 0 0 0 0 0 0 0 0 
0 0 0 0 0 0 0 0 0 0 0 0 0 0 0 0 0 0 0 0 0 0 0 0 0 0 0 0 0 0 0 0 0 
0 0 0 0 0 0 0 0 0 0 0 0 0 0 0 0 0 0 0 0 0 0 0 0 0 0 0 0 0 0 0 0 0 
0 0 0 0 0 0 0 0 0 0 0 0 0 0 0 0 0 0 0 0 0 0 0 0 0 0 0 0 0 0 0 0 0 
0 0 0 0 0 0 0 0 0 0 0 0 0 0 0 0 0 0 0 0 0 0 0 0 0 0 0 0 0 0 0 0 0 
0 0 0 
0 0 0 0 0 0 0 0 0 0 0 0 0 0 0 0 0 0 0 0 0 0 0 0 0 0 0 0 0 0 0 0 0 
0 0 0 0 0 0 0 0 0 0 0 0 0 0 0 0 0 0 0 0 0 0 0 0 0 0 0 0 0 0 2 25 12 
2 25 12 2 25 12 2 25 12 18 185 92 18 189 94 19 192 96 19 195 97 19 196 98 19 198 99 19 198 99 19 198 99 
19 197 98 19 196 98 19 194 97 19 190 95 18 186 93 18 181 90 17 174 87 16 166 83 15 156 78 14 144 72 13 130 65 
11 114 57 9 95 47 7 74 37 2 25 12 3 30 15 0 0 0 0 0 0 0 0 0 0 0 0 0 0 0 0 0 0 
0 0 0 0 0 0 0 0 0 0 0 0 0 0 0 0 0 0 0 0 0 0 0 0 0 0 0 0 0 0 0 0 0 
0 0 0 0 0 0 0 0 0 0 0 0 0 0 0 0 0 0 0 0 0 0 0 0 0 0 0 0 0 0 0 0 0 
0 0 0 0 0 0 0 0 0 0 0 0 0 0 0 0 0 0 0 0 0 0 0 0 0 0 0 0 0 0 0 0 0 
0 0 0 0 0 0 0 0 0 0 0 0 0 0 0 0 0 0 0 0 0 0 0 0 0 0 0 0 0 0 0 0 0 
0 0 0 
0 0 0 0 0 0 0 0 0 0 0 0 0 0 0 0 0 0 0 0 0 0 0 0 0 0 0 0 0 0 0 0 0 
0 0 0 0 0 0 0 0 0 0 0 0 0 0 0 0 0 0 0 0 0 0 0 0 0 0 0 0 0 0 2 25 12 
2 25 12 2 25 12 2 25 12 18 182 91 18 187 93 19 191 95 19 194 97 19 196 98 19 198 99 19 199 99 19 199 99 
19 199 99 19 198 99 19 196 98 19 193 96 18 189 94 18 183 91 17 176 88 16 168 84 15 157 78 14 144 72 12 128 64 
11 110 55 8 88 44 2 25 12 2 25 12 4 48 24 0 0 0 0 0 0 0 0 0 0 0 0 0 0 0 0 0 0 
0 0 0 0 0 0 0 0 0 0 0 0 0 0 0 0 0 0 0 0 0 0 0 0 0 0 0 0 0 0 0 0 0 
0 0 0 0 0 0 0 0 0 0 0 0 0 0 0 0 0 0 0 0 0 0 0 0 0 0 0 0 0 0 0 0 0 
0 0 0 0 0 0 0 0 0 0 0 0 0 0 0 0 0 0 0 0 0 0 0 0 0 0 0 0 0 0 0 0 0 
0 0 0 0 0 0 0 0 0 0 0 0 0 0 0 0 0 0 0 0 0 0 0 0 0 0 0 0 0 0 0 0 0 
0 0 0 
0 0 0 0 0 0 0 0 0 0 0 0 0 0 0 0 0 0 0 0 0 0 0 0 0 0 0 0 0 0 0 0 0 
0 0 0 0 0 0 0 0 0 0 0 0 0 0 0 0 0 0 0 0 0 0 0 0 0 0 0 0 0 0 0 0 0 
2 25 12 2 25 12 2 25 12 2 25 12 18 183 91 18 188 94 19 192 96 19 194 97 19 197 98 19 198 99 19 199 99 
20 200 100 19 199 99 19 198 99 19 195 97 19 191 95 18 186 93 17 179 89 17 170 85 15 158 79 14 143 71 12 125 62 
10 104 52 7 79 39 2 25 12 3 33 16 7 78 39 0 0 0 0 0 0 0 0 0 0 0 0 0 0 0 0 0 0 
0 0 0 0 0 0 0 0 0 0 0 0 0 0 0 0 0 0 0 0 0 0 0 0 0 0 0 0 0 0 0 0 0 
0 0 0 0 0 0 0 0 0 0 0 0 0 0 0 0 0 0 0 0 0 0 0 0 0 0 0 0 0 0 0 0 0 
0 0 0 0 0 0 0 0 0 0 0 0 0 0 0 0 0 0 0 0 0 0 0 0 0 0 0 0 0 0 0 0 0 
0 0 0 0 0 0 0 0 0 0 0 0 0 0 0 0 0 0 0 0 0 0 0 0 0 0 0 0 0 0 0 0 0 
0 0 0 
0 0 0 0 0 0 0 0 0 0 0 0 0 0 0 0 0 0 0 0 0 0 0 0 0 0 0 0 0 0 0 0 0 
0 0 0 0 0 0 0 0 0 0 0 0 0 0 0 0 0 0 0 0 0 0 0 0 0 0 0 0 0 0 0 0 0 
0 0 0 2 25 12 2 25 12 2 25 12 2 25 12 18 184 92 18 188 94 19 192 96 19 195 97 19 197 98 19 199 99 
20 200 100 20 200 100 19 199 99 19 197 98 19 194 97 18 189 94 18 181 90 17 172 86 15 158 79 14 141 70 12 120 60 
9 94 47 2 25 12 2 25 12 5 59 29 0 0 0 0 0 0 0 0 0 0 0 0 0 0 0 0 0 0 0 0 0 
0 0 0 0 0 0 0 0 0 0 0 0 0 0 0 0 0 0 0 0 0 0 0 0 0 0 0 0 0 0 0 0 0 
0 0 0 0 0 0 0 0 0 0 0 0 0 0 0 0 0 0 0 0 0 0 0 0 0 0 0 0 0 0 0 0 0 
0 0 0 0 0 0 0 0 0 0 0 0 0 0 0 0 0 0 0 0 0 0 0 0 0 0 0 0 0 0 0 0 0 
0 0 0 0 0 0 0 0 0 0 0 0 0 0 0 0 0 0 0 0 0 0 0 0 0 0 0 0 0 0 0 0 0 
0 0 0 
0 0 0 0 0 0 0 0 0 0 0 0 0 0 0 0 0 0 0 0 0 0 0 0 0 0 0 0 0 0 0 0 0 
0 0 0 0 0 0 0 0 0 0 0 0 0 0 0 0 0 0 0 0 0 0 0 0 0 0 0 0 0 0 0 0 0 
0 0 0 2 25 12 2 25 12 2 25 12 2 25 12 17 178 89 18 183 91 18 188 94 19 192 96 19 195 97 19 197 98 
19 199 99 20 200 100 20 200 100 19 199 99 19 196 98 19 191 95 18 184 92 17 173 86 15 158 79 13 137 68 11 111 55 
7 78 39 2 25 12 5 50 25 0 0 0 0 0 0 0 0 0 0 0 0 0 0 0 0 0 0 0 0 0 0 0 0 
0 0 0 0 0 0 0 0 0 0 0 0 0 0 0 0 0 0 0 0 0 0 0 0 0 0 0 0 0 0 0 0 0 
0 0 0 0 0 0 0 0 0 0 0 0 0 0 0 0 0 0 0 0 0 0 0 0 0 0 0 0 0 0 0 0 0 
0 0 0 0 0 0 0 0 0 0 0 0 0 0 0 0 0 0 0 0 0 0 0 0 0 0 0 0 0 0 0 0 0 
0 0 0 0 0 0 0 0 0 0 0 0 0 0 0 0 0 0 0 0 0 0 0 0 0 0 0 0 0 0 0 0 0 
0 0 0 
149 134 134 147 133 133 147 132 132 146 131 131 145 130 130 144 129 129 142 128 128 142 127 127 141 127 127 140 126 126 139 125 125 
138 124 124 137 124 124 137 123 123 136 122 122 135 121 121 134 121 121 134 120 120 133 120 120 132 119 119 131 118 118 131 117 117 
130 117 117 129 116 116 2 25 12 2 25 12 2 25 12 2 25 12 17 176 88 18 181 90 18 186 93 19 190 95 19 194 97 
19 196 98 19 198 99 19 199 99 19 199 99 19 197 98 19 193 96 18 186 93 17 174 87 15 155 77 12 129 64 9 93 46 
2 25 12 4 45 22 9 95 47 123 110 110 123 111 111 123 111 111 123 111 111 123 111 111 123 111 111 124 111 111 124 111 111 
124 112 112 124 112 112 124 112 112 125 112 112 125 112 112 126 113 113 126 113 113 126 113 113 127 114 114 127 114 114 127 115 115 
128 115 115 128 115 115 129 116 116 129 116 116 130 117 117 131 117 117 131 118 118 132 118 118 132 119 119 133 120 120 134 120 120 
134 121 121 135 121 121 136 122 122 137 123 123 138 124 124 138 124 124 139 125 125 140 126 126 141 127 127 142 127 127 143 128 128 
143 129 129 144 130 130 145 131 131 146 131 131 147 132 132 148 133 133 149 134 134 151 136 136 151 136 136 152 137 137 153 138 138 
0 0 0 
77 69 69 76 69 69 75 68 68 75 67 67 74 67 67 73 66 66 73 65 65 72 65 65 72 64 64 71 64 64 70 63 63 
70 63 63 69 62 62 69 62 62 68 61 61 67 61 61 67 60 60 67 60 60 66 59 59 66 59 59 65 59 59 65 58 58 
64 58 58 64 57 57 63 57 57 2 25 12 2 25 12 2 25 12 2 25 12 17 172 86 17 178 89 18 183 91 18 187 93 
19 191 95 19 194 97 19 196 98 19 197 98 19 197 98 19 194 97 18 186 93 17 172 86 14 147 73 10 108 54 2 25 12 
4 46 23 9 97 48 61 55 55 61 55 55 61 55 55 61 55 55 61 55 55 61 55 55 62 55 55 62 56 56 62 56 56 
62 56 56 63 56 56 63 56 56 63 57 57 63 57 57 64 57 57 64 58 58 65 58 58 65 59 59 65 59 59 66 59 59 
66 59 59 67 60 60 67 60 60 68 61 61 68 61 61 69 62 62 69 62 62 70 63 63 70 63 63 71 63 63 71 64 64 
72 65 65 72 65 65 73 66 66 74 66 66 74 67 67 75 68 68 76 68 68 76 69 69 77 69 69 78 70 70 79 71 71 
79 71 71 80 72 72 81 73 73 81 73 73 82 74 74 83 75 75 84 75 75 85 76 76 86 77 77 86 77 77 87 78 78 
0 0 0 
34 31 31 34 30 30 33 30 30 33 29 29 32 29 29 32 28 28 31 28 28 30 27 27 30 27 27 30 27 27 29 26 26 
29 26 26 28 25 25 28 25 25 27 25 25 27 24 24 27 24 24 26 24 24 26 23 23 26 23 23 25 23 23 25 23 23 
25 22 22 25 22 22 25 22 22 25 22 22 2 25 12 2 25 12 2 25 12 2 25 12 2 25 12 17 170 85 17 176 88 
18 180 90 18 184 92 18 188 94 19 190 95 19 191 95 18 188 94 17 179 89 15 158 79 2 25 12 2 25 12 5 57 28 
11 110 55 25 22 22 25 22 22 25 22 22 25 22 22 25 22 22 25 22 22 25 22 22 25 23 23 26 23 23 26 23 23 
26 23 23 26 24 24 27 24 24 27 24 24 27 25 25 28 25 25 28 25 25 29 26 26 29 26 26 29 26 26 30 27 27 
30 27 27 31 28 28 31 28 28 32 28 28 32 29 29 33 29 29 33 30 30 34 30 30 34 31 31 35 31 31 35 32 32 
36 32 32 36 33 33 37 33 33 38 34 34 38 34 34 39 35 35 39 35 35 40 36 36 41 36 36 41 37 37 42 37 37 
43 38 38 43 39 39 44 39 39 44 40 40 45 41 41 46 41 41 47 42 42 47 42 42 48 43 43 49 44 44 50 45 45 
0 0 0 
25 22 22 25 22 22 25 22 22 25 22 22 25 22 22 25 22 22 25 22 22 25 22 22 25 22 22 25 22 22 25 22 22 
25 22 22 25 22 22 25 22 22 25 22 22 25 22 22 25 22 22 25 22 22 25 22 22 25 22 22 25 22 22 25 22 22 
25 22 22 25 22 22 25 22 22 25 22 22 25 22 22 25 22 22 2 25 12 2 25 12 2 25 12 2 25 12 2 25 12 
2 25 12 2 25 12 16 168 84 17 170 85 2 25 12 2 25 12 2 25 12 2 25 12 2 25 12 7 79 39 25 22 22 
25 22 22 25 22 22 25 22 22 25 22 22 25 22 22 25 22 22 25 22 22 25 22 22 25 22 22 25 22 22 25 22 22 
25 22 22 25 22 22 25 22 22 25 22 22 25 22 22 25 22 22 25 22 22 25 22 22 25 22 22 25 22 22 25 22 22 
25 22 22 25 22 22 25 22 22 25 22 22 25 22 22 25 22 22 25 22 22 25 22 22 25 22 22 25 22 22 25 22 22 
25 22 22 25 22 22 25 22 22 25 22 22 25 22 22 25 22 22 25 22 22 25 22 22 25 22 22 25 22 22 25 22 22 
25 22 22 25 22 22 25 22 22 25 22 22 25 22 22 25 22 22 25 22 22 25 22 22 25 22 22 25 22 22 25 22 22 
0 0 0 
25 22 22 25 22 22 25 22 22 25 22 22 25 22 22 25 22 22 25 22 22 25 22 22 25 22 22 25 22 22 25 22 22 
25 22 22 25 22 22 25 22 22 25 22 22 25 22 22 25 22 22 25 22 22 25 22 22 25 22 22 25 22 22 25 22 22 
25 22 22 25 22 22 25 22 22 25 22 22 25 22 22 25 22 22 25 22 22 25 22 22 2 25 12 2 25 12 2 25 12 
2 25 12 2 25 12 2 25 12 2 25 12 2 25 12 2 25 12 2 25 12 5 59 29 25 22 22 25 22 22 25 22 22 
25 22 22 25 22 22 25 22 22 25 22 22 25 22 22 25 22 22 25 22 22 25 22 22 25 22 22 25 22 22 25 22 22 
25 22 22 25 22 22 25 22 22 25 22 22 25 22 22 25 22 22 25 22 22 25 22 22 25 22 22 25 22 22 25 22 22 
25 22 22 25 22 22 25 22 22 25 22 22 25 22 22 25 22 22 25 22 22 25 22 22 25 22 22 25 22 22 25 22 22 
25 22 22 25 22 22 25 22 22 25 22 22 25 22 22 25 22 22 25 22 22 25 22 22 25 22 22 25 22 22 25 22 22 
25 22 22 25 22 22 25 22 22 25 22 22 25 22 22 25 22 22 25 22 22 25 22 22 25 22 22 25 22 22 25 22 22 
0 0 0 
25 22 22 25 22 22 25 22 22 25 22 22 25 22 22 25 22 22 25 22 22 25 22 22 25 22 22 25 22 22 25 22 22 
25 22 22 25 22 22 25 22 22 25 22 22 25 22 22 25 22 22 25 22 22 25 22 22 25 22 22 25 22 22 25 22 22 
25 22 22 25 22 22 25 22 22 25 22 22 25 22 22 25 22 22 25 22 22 25 22 22 25 22 22 25 22 22 25 22 22 
25 22 22 2 25 12 2 25 12 2 25 12 25 22 22 25 22 22 25 22 22 25 22 22 25 22 22 25 22 22 25 22 22 
25 22 22 25 22 22 25 22 22 25 22 22 25 22 22 25 22 22 25 22 22 25 22 22 25 22 22 25 22 22 25 22 22 
25 22 22 25 22 22 25 22 22 25 22 22 25 22 22 25 22 22 25 22 22 25 22 22 25 22 22 25 22 22 25 22 22 
25 22 22 25 22 22 25 22 22 25 22 22 25 22 22 25 22 22 25 22 22 25 22 22 25 22 22 25 22 22 25 22 22 
25 22 22 25 22 22 25 22 22 25 22 22 25 22 22 25 22 22 25 22 22 25 22 22 25 22 22 25 22 22 25 22 22 
25 22 22 25 22 22 25 22 22 25 22 22 25 22 22 25 22 22 25 22 22 25 22 22 25 22 22 25 22 22 25 22 22 
0 0 0 
25 22 22 25 22 22 25 22 22 25 22 22 25 22 22 25 22 22 25 22 22 25 22 22 25 22 22 25 22 22 25 22 22 
25 22 22 25 22 22 25 22 22 25 22 22 25 22 22 25 22 22 25 22 22 25 22 22 25 22 22 25 22 22 25 22 22 
25 22 22 25 22 22 25 22 22 25 22 22 25 22 22 25 22 22 25 22 22 25 22 22 25 22 22 25 22 22 25 22 22 
25 22 22 25 22 22 25 22 22 25 22 22 25 22 22 25 22 22 25 22 22 25 22 22 25 22 22 25 22 22 25 22 22 
25 22 22 25 22 22 25 22 22 25 22 22 25 22 22 25 22 22 25 22 22 25 22 22 25 22 22 25 22 22 25 22 22 
25 22 22 25 22 22 25 22 22 25 22 22 25 22 22 25 22 22 25 22 22 25 22 22 25 22 22 25 22 22 25 22 22 
25 22 22 25 22 22 25 22 22 25 22 22 25 22 22 25 22 22 25 22 22 25 22 22 25 22 22 25 22 22 25 22 22 
25 22 22 25 22 22 25 22 22 25 22 22 25 22 22 25 22 22 25 22 22 25 22 22 25 22 22 25 22 22 25 22 22 
25 22 22 25 22 22 25 22 22 25 22 22 25 22 22 25 22 22 25 22 22 25 22 22 25 22 22 25 22 22 25 22 22 
0 0 0 
25 22 22 25 22 22 25 22 22 25 22 22 25 22 22 25 22 22 25 22 22 25 22 22 25 22 22 25 22 22 25 22 22 
25 22 22 25 22 22 25 22 22 25 22 22 25 22 22 25 22 22 25 22 22 25 22 22 25 22 22 25 22 22 25 22 22 
112 101 101 112 101 101 112 101 101 112 101 101 112 100 100 111 100 100 111 100 100 111 100 100 111 100 100 110 99 99 110 99 99 
110 99 99 110 99 99 109 98 98 109 98 98 109 98 98 108 98 98 108 97 97 108 97 97 108 97 97 107 96 96 107 96 96 
106 96 96 106 95 95 106 95 95 105 95 95 105 94 94 105 94 94 104 94 94 104 93 93 103 93 93 103 93 93 103 92 92 
102 92 92 102 92 92 101 91 91 101 91 91 100 90 90 100 90 90 100 90 90 99 89 89 99 89 89 98 88 88 98 88 88 
97 87 87 97 87 87 96 87 87 96 86 86 95 86 86 95 85 85 94 85 85 94 84 84 93 84 84 93 83 83 92 83 83 
92 83 83 25 22 22 25 22 22 25 22 22 25 22 22 25 22 22 25 22 22 25 22 22 25 22 22 25 22 22 25 22 22 
25 22 22 25 22 22 25 22 22 25 22 22 25 22 22 25 22 22 25 22 22 25 22 22 25 22 22 25 22 22 25 22 22 
0 0 0 
25 22 22 25 22 22 123 111 111 123 111 111 123 111 111 123 111 111 123 111 111 123 111 111 123 111 111 123 111 111 123 110 110 
123 110 110 123 110 110 122 110 110 122 110 110 122 110 110 122 110 110 122 110 110 122 109 109 122 109 109 121 109 109 121 109 109 
121 109 109 121 109 109 120 108 108 120 108 108 120 108 108 120 108 108 120 108 108 119 107 107 119 107 107 119 107 107 118 107 107 
118 106 106 118 106 106 118 106 106 117 105 105 117 105 105 117 105 105 116 105 105 116 104 104 116 104 104 115 104 104 115 103 103 
114 103 103 114 103 103 114 102 102 113 102 102 113 102 102 112 101 101 112 101 101 112 100 100 111 100 100 111 100 100 110 99 99 
110 99 99 110 99 99 109 98 98 109 98 98 108 97 97 108 97 97 107 97 97 107 96 96 106 96 96 106 95 95 105 95 95 
105 94 94 105 94 94 104 94 94 104 93 93 103 93 93 103 92 92 102 92 92 102 91 91 101 91 91 101 90 90 100 90 90 
100 90 90 99 89 89 99 89 89 98 88 88 97 88 88 97 87 87 96 87 87 96 86 86 95 86 86 95 85 85 94 85 85 
94 84 84 93 84 84 93 83 83 92 83 83 92 82 82 91 82 82 25 50 5 26 52 5 90 81 81 89 80 80 25 22 22 
0 0 0 
132 118 118 131 118 118 131 118 118 131 118 118 131 118 118 131 118 118 131 118 118 131 118 118 131 118 118 131 118 118 130 117 117 
130 117 117 130 117 117 130 117 117 130 117 117 130 117 117 129 116 116 129 116 116 129 116 116 129 116 116 129 116 116 128 115 115 
128 115 115 128 115 115 128 115 115 127 115 115 127 114 114 127 114 114 126 114 114 126 114 114 126 113 113 126 113 113 125 113 113 
125 112 112 125 112 112 124 112 112 124 112 112 124 111 111 123 111 111 123 111 111 123 110 110 122 110 110 122 110 110 121 109 109 
121 109 109 121 109 109 120 108 108 120 108 108 120 108 108 119 107 107 119 107 107 118 106 106 118 106 106 117 106 106 117 105 105 
117 105 105 116 104 104 116 104 104 115 104 104 115 103 103 114 103 103 114 102 102 113 102 102 113 102 102 113 101 101 112 101 101 
112 100 100 111 100 100 111 100 100 110 99 99 110 99 99 109 98 98 109 98 98 108 97 97 108 97 97 107 96 96 107 96 96 
106 96 96 106 95 95 105 95 95 105 94 94 104 94 94 104 93 93 103 93 93 103 92 92 102 92 92 102 91 91 101 91 91 
101 91 91 100 90 90 100 90 90 99 89 89 12 25 2 12 25 2 12 25 2 12 25 2 12 25 2 23 47 4 95 86 86 
0 0 0 
138 124 124 138 124 124 138 124 124 138 124 124 138 124 124 138 124 124 138 124 124 137 124 124 137 123 123 137 123 123 137 123 123 
137 123 123 136 123 123 136 123 123 136 122 122 136 122 122 136 122 122 135 122 122 135 122 122 135 121 121 135 121 121 134 121 121 
134 121 121 134 120 120 134 120 120 133 120 120 133 120 120 133 119 119 132 119 119 132 119 119 132 118 118 131 118 118 131 118 118 
131 118 118 130 117 117 130 117 117 130 117 117 129 116 116 129 116 116 129 116 116 128 115 115 128 115 115 127 115 115 127 114 114 
127 114 114 126 114 114 126 113 113 126 113 113 125 113 113 125 112 112 124 112 112 124 111 111 123 111 111 123 111 111 123 110 110 
122 110 110 122 110 110 121 109 109 121 109 109 120 108 108 120 108 108 120 108 108 119 107 107 119 107 107 118 106 106 118 106 106 
117 105 105 117 105 105 116 105 105 116 104 104 115 104 104 115 103 103 114 103 103 114 102 102 113 102 102 113 102 102 112 101 101 
112 101 101 111 100 100 111 100 100 110 99 99 110 99 99 109 98 98 109 98 98 108 98 98 108 97 97 108 97 97 107 96 96 
106 96 96 106 95 95 105 95 95 12 25 2 12 25 2 12 25 2 12 25 2 12 25 2 12 25 2 12 25 2 12 25 2 
0 0 0 
144 130 130 144 129 129 144 129 129 144 129 129 143 129 129 143 129 129 143 129 129 143 129 129 143 128 128 142 128 128 142 128 128 
142 128 128 142 128 128 142 127 127 141 127 127 141 127 127 141 127 127 141 126 126 140 126 126 140 126 126 140 126 126 139 125 125 
139 125 125 139 125 125 139 125 125 138 124 124 138 124 124 138 124 124 137 124 124 137 123 123 137 123 123 136 123 123 136 122 122 
136 122 122 135 122 122 135 121 121 135 121 121 134 121 121 134 120 120 133 120 120 133 120 120 133 119 119 132 119 119 132 119 119 
132 118 118 131 118 118 131 118 118 130 117 117 130 117 117 130 117 117 129 116 116 129 116 116 128 115 115 128 115 115 127 115 115 
127 114 114 127 114 114 126 113 113 126 113 113 125 113 113 125 112 112 124 112 112 124 111 111 123 111 111 123 111 111 123 110 110 
122 110 110 122 109 109 121 109 109 121 109 109 120 108 108 120 108 108 119 107 107 119 107 107 118 106 106 118 106 106 117 106 106 
117 105 105 116 105 105 116 104 104 115 104 104 115 103 103 114 103 103 114 103 103 114 102 102 113 102 102 113 101 101 112 101 101 
112 100 100 111 100 100 12 25 2 12 25 2 12 25 2 12 25 2 12 25 2 12 25 2 12 25 2 12 25 2 12 25 2 
0 0 0 
149 134 134 149 134 134 149 134 134 148 133 133 148 133 133 148 133 133 148 133 133 148 133 133 147 133 133 147 132 132 147 132 132 
147 132 132 146 132 132 146 131 131 146 131 131 146 131 131 145 131 131 145 130 130 145 130 130 144 130 130 144 130 130 144 129 129 
143 129 129 143 129 129 143 129 129 143 128 128 142 128 128 142 128 128 142 127 127 141 127 127 141 127 127 141 126 126 140 126 126 
140 126 126 139 125 125 139 125 125 139 125 125 138 124 124 138 124 124 138 124 124 137 123 123 137 123 123 136 123 123 136 122 122 
136 122 122 135 122 122 135 121 121 134 121 121 134 121 121 134 120 120 133 120 120 133 120 120 132 119 119 132 119 119 132 118 118 
131 118 118 131 118 118 130 117 117 130 117 117 129 116 116 129 116 116 129 116 116 128 115 115 128 115 115 127 114 114 127 114 114 
126 114 114 126 113 113 125 113 113 125 112 112 125 112 112 124 112 112 124 111 111 123 111 111 123 110 110 122 110 110 122 110 110 
121 109 109 121 109 109 120 108 108 120 108 108 119 107 107 119 107 107 118 107 107 118 106 106 118 106 106 117 105 105 117 105 105 
116 104 104 116 104 104 12 25 2 12 25 2 12 25 2 12 25 2 12 25 2 12 25 2 12 25 2 12 25 2 12 25 2 
0 0 0 
153 138 138 153 137 137 153 137 137 152 137 137 152 137 137 152 137 137 152 136 136 151 136 136 151 136 136 151 136 136 151 136 136 
150 135 135 150 135 135 150 135 135 150 135 135 149 134 134 149 134 134 149 134 134 148 134 134 148 133 133 148 133 133 148 133 133 
147 132 132 147 132 132 147 132 132 146 132 132 146 131 131 146 131 131 145 131 131 145 130 130 145 130 130 144 130 130 144 129 129 
143 129 129 143 129 129 143 128 128 142 128 128 142 128 128 142 127 127 141 127 127 141 127 127 140 126 126 140 126 126 140 126 126 
139 125 125 139 125 125 139 125 125 138 124 124 138 124 124 137 124 124 137 123 123 136 123 123 136 122 122 136 122 122 135 122 122 
135 121 121 134 121 121 134 121 121 134 120 120 133 120 120 133 119 119 132 119 119 132 119 119 131 118 118 131 118 118 131 117 117 
130 117 117 130 117 117 129 116 116 129 116 116 128 115 115 128 115 115 127 115 115 127 114 114 127 114 114 126 113 113 126 113 113 
125 113 113 125 112 112 124 112 112 124 111 111 123 111 111 123 111 111 122 110 110 122 110 110 121 109 109 121 109 109 121 108 108 
120 108 108 120 108 108 12 25 2 12 25 2 12 25 2 12 25 2 12 25 2 12 25 2 12 25 2 12 25 2 12 25 2 
0 0 0 
157 141 141 156 141 141 156 140 140 156 140 140 156 140 140 155 140 140 155 140 140 155 139 139 155 139 139 154 139 139 154 139 139 
154 138 138 153 138 138 153 138 138 153 138 138 153 137 137 152 137 137 152 137 137 152 136 136 151 136 136 151 136 136 151 136 136 
150 135 135 150 135 135 150 135 135 149 134 134 149 134 134 149 134 134 148 134 134 148 133 133 148 133 133 147 133 133 147 132 132 
147 132 132 146 132 132 146 131 131 146 131 131 145 131 131 145 130 130 144 130 130 144 130 130 144 129 129 143 129 129 143 129 129 
142 128 128 142 128 128 142 127 127 141 127 127 141 127 127 140 126 126 140 126 126 140 126 126 139 125 125 139 125 125 138 125 125 
138 124 124 138 124 124 137 123 123 137 123 123 136 123 123 136 122 122 136 122 122 135 122 122 135 121 121 134 121 121 134 120 120 
133 120 120 133 120 120 133 119 119 132 119 119 132 118 118 131 118 118 131 118 118 130 117 117 130 117 117 129 116 116 129 116 116 
129 116 116 128 115 115 128 115 115 127 114 114 127 114 114 126 114 114 126 113 113 125 113 113 125 112 112 125 112 112 124 112 112 
124 111 111 123 111 111 12 25 2 12 25 2 12 25 2 12 25 2 12 25 2 12 25 2 12 25 2 12 25 2 12 25 2 
0 0 0 
160 144 144 159 143 143 159 143 143 159 143 143 159 143 143 158 142 142 158 142 142 158 142 142 157 142 142 157 141 141 157 141 141 
157 141 141 156 141 141 156 140 140 156 140 140 155 140 140 155 140 140 155 139 139 154 139 139 154 139 139 154 138 138 154 138 138 
153 138 138 153 138 138 153 137 137 152 137 137 152 137 137 152 136 136 151 136 136 151 136 136 150 135 135 150 135 135 150 135 135 
149 134 134 149 134 134 149 134 134 148 133 133 148 133 133 148 133 133 147 132 132 147 132 132 146 132 132 146 131 131 146 131 131 
145 131 131 145 130 130 144 130 130 144 130 130 144 129 129 143 129 129 143 129 129 143 128 128 142 128 128 142 127 127 141 127 127 
141 127 127 140 126 126 140 126 126 140 126 126 139 125 125 139 125 125 138 125 125 138 124 124 138 124 124 137 123 123 137 123 123 
136 123 123 136 122 122 135 122 122 135 121 121 135 121 121 134 121 121 134 120 120 133 120 120 133 120 120 132 119 119 132 119 119 
132 118 118 131 118 118 131 118 118 130 117 117 130 117 117 129 116 116 129 116 116 129 116 116 128 115 115 128 115 115 127 114 114 
127 114 114 126 114 114 12 25 2 12 25 2 12 25 2 12 25 2 12 25 2 12 25 2 12 25 2 12 25 2 12 25 2 
0 0 0 
162 146 146 162 146 146 162 145 145 161 145 145 161 145 145 161 145 145 161 144 144 160 144 144 160 144 144 160 144 144 159 143 143 
159 143 143 159 143 143 158 143 143 158 142 142 158 142 142 158 142 142 157 141 141 157 141 141 157 141 141 156 141 141 156 140 140 
156 140 140 155 140 140 155 139 139 155 139 139 154 139 139 154 138 138 154 138 138 153 138 138 153 138 138 153 137 137 152 137 137 
152 137 137 151 136 136 151 136 136 151 136 136 150 135 135 150 135 135 150 135 135 149 134 134 149 134 134 148 134 134 148 133 133 
148 133 133 147 133 133 147 132 132 147 132 132 146 132 132 146 131 131 145 131 131 145 130 130 145 130 130 144 130 130 144 129 129 
143 129 129 143 129 129 143 128 128 142 128 128 142 128 128 141 127 127 141 127 127 141 126 126 140 126 126 140 126 126 139 125 125 
139 125 125 139 125 125 138 124 124 138 124 124 137 124 124 137 123 123 136 123 123 136 122 122 136 122 122 135 122 122 135 121 121 
134 121 121 134 120 120 134 120 120 133 120 120 133 119 119 132 119 119 132 119 119 131 118 118 131 118 118 131 117 117 130 117 117 
130 117 117 129 116 116 129 116 116 12 25 2 12 25 2 12 25 2 12 25 2 12 25 2 12 25 2 12 25 2 12 25 2 
0 0 0 
164 148 148 164 148 148 164 147 147 164 147 147 163 147 147 163 147 147 163 146 146 162 146 146 162 146 146 162 146 146 162 145 145 
161 145 145 161 145 145 161 145 145 160 144 144 160 144 144 160 144 144 159 143 143 159 143 143 159 143 143 158 143 143 158 142 142 
158 142 142 157 142 142 157 141 141 157 141 141 156 141 141 156 140 140 156 140 140 155 140 140 155 139 139 155 139 139 154 139 139 
154 139 139 154 138 138 153 138 138 153 138 138 153 137 137 152 137 137 152 137 137 151 136 136 151 136 136 151 136 136 150 135 135 
150 135 135 150 135 135 149 134 134 149 134 134 148 134 134 148 133 133 148 133 133 147 132 132 147 132 132 146 132 132 146 131 131 
146 131 131 145 131 131 145 130 130 145 130 130 144 130 130 144 129 129 143 129 129 143 129 129 143 128 128 142 128 128 142 127 127 
141 127 127 141 127 127 141 126 126 140 126 126 140 126 126 139 125 125 139 125 125 138 125 125 138 124 124 138 124 124 137 123 123 
137 123 123 136 123 123 136 122 122 136 122 122 135 122 122 135 121 121 134 121 121 134 120 120 134 120 120 133 120 120 133 119 119 
132 119 119 132 119 119 131 118 118 131 118 118 12 25 2 12 25 2 12 25 2 12 25 2 12 25 2 12 25 2 43 87 8 
0 0 0 
166 150 150 166 149 149 166 149 149 166 149 149 165 149 149 165 148 148 165 148 148 164 148 148 164 148 148 164 147 147 163 147 147 
163 147 147 163 147 147 163 146 146 162 146 146 162 146 146 162 145 145 161 145 145 161 145 145 161 145 145 160 144 144 160 144 144 
160 144 144 159 143 143 159 143 143 159 143 143 158 142 142 158 142 142 158 142 142 157 142 142 157 141 141 157 141 141 156 141 141 
156 140 140 156 140 140 155 140 140 155 139 139 154 139 139 154 139 139 154 138 138 153 138 138 153 138 138 153 137 137 152 137 137 
152 137 137 152 136 136 151 136 136 151 136 136 150 135 135 150 135 135 150 135 135 149 134 134 149 134 134 149 134 134 148 133 133 
148 133 133 147 133 133 147 132 132 147 132 132 146 132 132 146 131 131 145 131 131 145 130 130 145 130 130 144 130 130 144 129 129 
143 129 129 143 129 129 143 128 128 142 128 128 142 128 128 141 127 127 141 127 127 141 127 127 140 126 126 140 126 126 139 125 125 
139 125 125 139 125 125 138 124 124 138 124 124 137 124 124 137 123 123 137 123 123 136 123 123 136 122 122 135 122 122 135 121 121 
135 121 121 134 121 121 134 120 120 133 120 120 133 120 120 133 119 119 132 119 119 48 97 9 131 118 118 131 118 118 131 117 117 
0 0 0 
168 151 151 168 151 151 167 151 151 167 150 150 167 150 150 167 150 150 185 148 18 189 151 18 190 152 19 190 152 19 165 149 149 
165 148 148 165 148 148 164 148 148 164 147 147 164 147 147 163 147 147 163 147 147 163 146 146 162 146 146 162 146 146 162 145 145 
161 145 145 161 145 145 161 145 145 160 144 144 160 144 144 160 144 144 159 143 143 159 143 143 159 143 143 158 142 142 158 142 142 
158 142 142 157 141 141 157 141 141 157 141 141 156 141 141 156 140 140 155 140 140 155 140 140 155 139 139 154 139 139 154 139 139 
154 138 138 153 138 138 153 138 138 153 137 137 152 137 137 152 137 137 151 136 136 151 136 136 151 136 136 150 135 135 150 135 135 
150 135 135 149 134 134 149 134 134 148 134 134 148 133 133 148 133 133 147 133 133 147 132 132 147 132 132 146 131 131 146 131 131 
145 131 131 145 130 130 145 130 130 144 130 130 144 129 129 143 129 129 143 129 129 143 128 128 142 128 128 142 128 128 142 127 127 
141 127 127 141 127 127 140 126 126 140 126 126 140 126 126 139 125 125 139 125 125 138 124 124 138 124 124 138 124 124 137 123 123 
137 123 123 136 123 123 136 122 122 136 122 122 135 122 122 135 121 121 134 121 121 134 121 121 134 120 120 133 120 120 133 120 120 
0 0 0 
170 153 153 169 152 152 169 152 152 169 152 152 168 151 151 177 141 17 183 146 18 186 148 18 187 149 18 187 149 18 167 150 150 
166 150 150 166 149 149 166 149 149 165 149 149 165 148 148 165 148 148 164 148 148 164 148 148 164 147 147 163 147 147 163 147 147 
163 146 146 162 146 146 162 146 146 162 146 146 161 145 145 161 145 145 161 145 145 160 144 144 160 144 144 160 144 144 159 143 143 
159 143 143 159 143 143 158 143 143 158 142 142 158 142 142 157 142 142 157 141 141 157 141 141 156 141 141 156 140 140 156 140 140 
155 140 140 155 139 139 155 139 139 154 139 139 154 138 138 153 138 138 153 138 138 153 137 137 152 137 137 152 137 137 152 136 136 
151 136 136 151 136 136 151 135 135 150 135 135 150 135 135 149 134 134 149 134 134 149 134 134 148 133 133 148 133 133 148 133 133 
147 132 132 147 132 132 146 132 132 146 131 131 146 131 131 145 131 131 145 130 130 145 130 130 144 130 130 144 129 129 143 129 129 
143 129 129 143 128 128 142 128 128 142 128 128 141 127 127 141 127 127 141 127 127 140 126 126 140 126 126 140 126 126 139 125 125 
139 125 125 138 125 125 138 124 124 138 124 124 137 123 123 137 123 123 136 123 123 136 122 122 136 122 122 135 122 122 135 121 121 
0 0 0 
171 154 154 171 153 153 170 153 153 170 153 153 170 153 153 172 137 17 178 142 17 180 144 18 181 144 18 180 144 18 168 151 151 
168 151 151 167 151 151 167 150 150 167 150 150 166 150 150 166 149 149 166 149 149 165 149 149 165 149 149 165 148 148 164 148 148 
164 148 148 164 147 147 163 147 147 163 147 147 163 147 147 163 146 146 162 146 146 162 146 146 162 145 145 161 145 145 161 145 145 
160 144 144 160 144 144 160 144 144 159 143 143 159 143 143 159 143 143 158 143 143 158 142 142 158 142 142 157 142 142 157 141 141 
157 141 141 156 141 141 156 140 140 156 140 140 155 140 140 155 139 139 155 139 139 154 139 139 154 138 138 153 138 138 153 138 138 
153 137 137 152 137 137 152 137 137 152 136 136 151 136 136 151 136 136 151 135 135 150 135 135 150 135 135 150 135 135 149 134 134 
149 134 134 148 134 134 148 133 133 148 133 133 147 133 133 147 132 132 147 132 132 146 132 132 146 131 131 145 131 131 145 131 131 
145 130 130 144 130 130 144 130 130 144 129 129 143 129 129 143 129 129 142 128 128 142 128 128 142 127 127 141 127 127 141 127 127 
141 126 126 140 126 126 140 126 126 139 125 125 139 125 125 139 125 125 138 124 124 138 124 124 138 124 124 137 123 123 137 123 123 
0 0 0 
172 155 155 172 154 154 171 154 154 171 154 154 171 154 154 171 153 153 169 135 16 171 137 17 171 137 17 167 133 16 169 152 152 
169 152 152 168 152 152 168 151 151 168 151 151 168 151 151 167 150 150 167 150 150 167 150 150 166 150 150 166 149 149 166 149 149 
165 149 149 165 148 148 165 148 148 164 148 148 164 148 148 164 147 147 163 147 147 163 147 147 163 146 146 162 146 146 162 146 146 
162 146 146 161 145 145 161 145 145 161 145 145 160 144 144 160 144 144 160 144 144 159 143 143 159 143 143 159 143 143 158 142 142 
158 142 142 158 142 142 157 142 142 157 141 141 157 141 141 156 141 141 156 140 140 156 140 140 155 140 140 155 139 139 155 139 139 
154 139 139 154 138 138 153 138 138 153 138 138 153 137 137 152 137 137 152 137 137 152 136 136 151 136 136 151 136 136 151 135 135 
150 135 135 150 135 135 150 135 135 149 134 134 149 134 134 148 134 134 148 133 133 148 133 133 147 133 133 147 132 132 147 132 132 
146 132 132 146 131 131 146 131 131 145 131 131 145 130 130 144 130 130 144 130 130 144 129 129 143 129 129 143 129 129 143 128 128 
142 128 128 142 128 128 142 127 127 141 127 127 141 127 127 140 126 126 140 126 126 140 126 126 139 125 125 139 125 125 139 125 125 
0 0 0 
173 156 156 173 155 155 172 155 155 172 155 155 172 155 155 172 154 154 171 154 154 171 154 154 171 154 154 170 153 153 170 153 153 
170 153 153 169 152 152 169 152 152 169 152 152 169 152 152 168 151 151 168 151 151 168 151 151 167 151 151 167 150 150 167 150 150 
166 150 150 166 149 149 166 149 149 165 149 149 165 149 149 165 148 148 164 148 148 164 148 148 164 147 147 164 147 147 163 147 147 
163 147 147 163 146 146 162 146 146 162 146 146 162 145 145 161 145 145 161 145 145 161 144 144 160 144 144 160 144 144 160 144 144 
159 143 143 159 143 143 159 143 143 158 142 142 158 142 142 158 142 142 157 141 141 157 141 141 156 141 141 156 140 140 156 140 140 
155 140 140 155 140 140 155 139 139 154 139 139 154 139 139 154 138 138 153 138 138 153 138 138 153 137 137 152 137 137 152 137 137 
152 136 136 151 136 136 151 136 136 151 135 135 150 135 135 150 135 135 150 135 135 149 134 134 149 134 134 148 134 134 148 133 133 
148 133 133 147 133 133 147 132 132 147 132 132 146 132 132 146 131 131 146 131 131 145 131 131 145 130 130 145 130 130 144 130 130 
144 129 129 143 129 129 143 129 129 143 128 128 142 128 128 142 128 128 142 127 127 141 127 127 141 127 127 141 127 127 140 126 126 
0 0 0 
174 156 156 174 156 156 173 156 156 173 156 156 173 155 155 172 155 155 172 155 155 172 155 155 172 154 154 171 154 154 171 154 154 
171 154 154 170 153 153 170 153 153 170 153 153 170 153 153 169 152 152 169 152 152 169 152 152 168 151 151 168 151 151 168 151 151 
167 151 151 167 150 150 167 150 150 166 150 150 166 149 149 166 149 149 165 149 149 165 149 149 165 148 148 165 148 148 164 148 148 
164 147 147 164 147 147 163 147 147 163 147 147 163 146 146 162 146 146 162 146 146 162 145 145 161 145 145 161 145 145 161 145 145 
160 144 144 160 144 144 160 144 144 159 143 143 159 143 143 159 143 143 158 142 142 158 142 142 158 142 142 157 142 142 157 141 141 
157 141 141 156 141 141 156 140 140 156 140 140 155 140 140 155 139 139 155 139 139 154 139 139 154 138 138 154 138 138 153 138 138 
153 138 138 153 137 137 152 137 137 152 137 137 151 136 136 151 136 136 151 136 136 150 135 135 150 135 135 150 135 135 149 134 134 
149 134 134 149 134 134 148 133 133 148 133 133 148 133 133 147 133 133 147 132 132 147 132 132 146 132 132 146 131 131 146 131 131 
145 131 131 145 130 130 145 130 130 144 130 130 144 129 129 144 129 129 143 129 129 143 129 129 142 128 128 142 128 128 142 128 128 
0 0 0 
175 157 157 174 157 157 174 157 157 174 156 156 174 156 156 173 156 156 173 156 156 173 155 155 172 155 155 172 155 155 172 155 155 
172 154 154 171 154 154 171 154 154 171 154 154 170 153 153 170 153 153 170 153 153 169 152 152 169 152 152 169 152 152 169 152 152 
168 151 151 168 151 151 168 151 151 167 151 151 167 150 150 167 150 150 166 150 150 166 149 149 166 149 149 165 149 149 165 149 149 
165 148 148 165 148 148 164 148 148 164 147 147 164 147 147 163 147 147 163 147 147 163 146 146 162 146 146 162 146 146 162 145 145 
161 145 145 161 145 145 161 145 145 160 144 144 160 144 144 160 144 144 159 143 143 159 143 143 159 143 143 158 142 142 158 142 142 
158 142 142 157 142 142 157 141 141 157 141 141 156 141 141 156 140 140 156 140 140 155 140 140 155 139 139 155 139 139 154 139 139 
154 139 139 154 138 138 153 138 138 153 138 138 153 137 137 152 137 137 152 137 137 152 136 136 151 136 136 151 136 136 151 136 136 
150 135 135 150 135 135 150 135 135 149 134 134 149 134 134 149 134 134 148 133 133 148 133 133 148 133 133 147 133 133 147 132 132 
147 132 132 146 132 132 146 131 131 146 131 131 145 131 131 145 130 130 145 130 130 144 130 130 144 129 129 144 129 129 143 129 129 
0 0 0 
175 158 158 175 158 158 175 157 157 175 157 157 174 157 157 174 157 157 174 156 156 173 156 156 173 156 156 173 156 156 173 155 155 
172 155 155 172 155 155 172 155 155 171 154 154 171 154 154 171 154 154 171 153 153 170 153 153 170 153 153 170 153 153 169 152 152 
169 152 152 169 152 152 168 152 152 168 151 151 168 151 151 168 151 151 167 150 150 167 150 150 167 150 150 166 150 150 166 149 149 
166 149 149 165 149 149 165 149 149 165 148 148 164 148 148 164 148 148 164 147 147 163 147 147 163 147 147 163 147 147 163 146 146 
162 146 146 162 146 146 162 145 145 161 145 145 161 145 145 161 145 145 160 144 144 160 144 144 160 144 144 159 143 143 159 143 143 
159 143 143 158 142 142 158 142 142 158 142 142 157 142 142 157 141 141 157 141 141 156 141 141 156 140 140 156 140 140 155 140 140 
155 140 140 155 139 139 154 139 139 154 139 139 154 138 138 153 138 138 153 138 138 153 137 137 152 137 137 152 137 137 152 137 137 
151 136 136 151 136 136 151 136 136 151 135 135 150 135 135 150 135 135 150 135 135 149 134 134 149 134 134 149 134 134 148 133 133 
148 133 133 148 133 133 147 132 132 147 132 132 147 132 132 146 132 132 146 131 131 146 131 131 145 131 131 145 130 130 145 130 130 
0 0 0 
176 158 158 176 158 158 176 158 158 175 158 158 175 157 157 175 157 157 174 157 157 174 157 157 174 156 156 174 156 156 173 156 156 
173 156 156 173 155 155 172 155 155 172 155 155 172 155 155 172 154 154 171 154 154 171 154 154 171 154 154 170 153 153 170 153 153 
170 153 153 169 152 152 169 152 152 169 152 152 169 152 152 168 151 151 168 151 151 168 151 151 167 151 151 167 150 150 167 150 150 
166 150 150 166 150 150 166 149 149 166 149 149 165 149 149 165 148 148 165 148 148 164 148 148 164 148 148 164 147 147 163 147 147 
163 147 147 163 146 146 162 146 146 162 146 146 162 146 146 162 145 145 161 145 145 161 145 145 161 144 144 160 144 144 160 144 144 
160 144 144 159 143 143 159 143 143 159 143 143 158 142 142 158 142 142 158 142 142 157 142 142 157 141 141 157 141 141 156 141 141 
156 140 140 156 140 140 155 140 140 155 140 140 155 139 139 155 139 139 154 139 139 154 138 138 154 138 138 153 138 138 153 138 138 
153 137 137 152 137 137 152 137 137 152 136 136 151 136 136 151 136 136 151 136 136 150 135 135 150 135 135 150 135 135 149 134 134 
149 134 134 149 134 134 148 133 133 148 133 133 148 133 133 147 133 133 147 132 132 147 132 132 146 132 132 146 131 131 146 131 131 
0 0 0 
177 159 159 176 159 159 176 158 158 176 158 158 176 158 158 175 158 158 175 157 157 175 157 157 174 157 157 174 157 157 174 156 156 
174 156 156 173 156 156 173 156 156 173 155 155 172 155 155 172 155 155 172 155 155 172 154 154 171 154 154 171 154 154 171 154 154 
170 153 153 170 153 153 170 153 153 170 153 153 169 152 152 169 152 152 169 152 152 168 152 152 168 151 151 168 151 151 167 151 151 
167 150 150 167 150 150 167 150 150 166 150 150 166 149 149 166 149 149 165 149 149 165 149 149 165 148 148 164 148 148 164 148 148 
164 147 147 164 147 147 163 147 147 163 147 147 163 146 146 162 146 146 162 146 146 162 145 145 161 145 145 161 145 145 161 145 145 
160 144 144 160 144 144 160 144 144 160 144 144 159 143 143 159 143 143 159 143 143 158 142 142 158 142 142 158 142 142 157 142 142 
157 141 141 157 141 141 156 141 141 156 140 140 156 140 140 155 140 140 155 140 140 155 139 139 155 139 139 154 139 139 154 138 138 
154 138 138 153 138 138 153 138 138 153 137 137 152 137 137 152 137 137 152 136 136 151 136 136 151 136 136 151 136 136 150 135 135 
150 135 135 150 135 135 149 134 134 149 134 134 149 134 134 149 134 134 148 133 133 148 133 133 148 133 133 147 132 132 147 132 132 
0 0 0 
177 159 159 177 159 159 177 159 159 176 159 159 176 158 158 176 158 158 176 158 158 175 158 158 175 157 157 175 157 157 174 157 157 
174 157 157 174 156 156 174 156 156 173 156 156 173 156 156 173 155 155 172 155 155 172 155 155 172 155 155 172 154 154 171 154 154 
171 154 154 171 154 154 170 153 153 170 153 153 170 153 153 170 153 153 169 152 152 169 152 152 169 152 152 168 152 152 168 151 151 
168 151 151 168 151 151 167 151 151 167 150 150 167 150 150 166 150 150 166 149 149 166 149 149 165 149 149 165 149 149 165 148 148 
165 148 148 164 148 148 164 148 148 164 147 147 163 147 147 163 147 147 163 146 146 162 146 146 162 146 146 162 146 146 162 145 145 
161 145 145 161 145 145 161 145 145 160 144 144 160 144 144 160 144 144 159 143 143 159 143 143 159 143 143 159 143 143 158 142 142 
158 142 142 158 142 142 157 142 142 157 141 141 157 141 141 156 141 141 156 140 140 156 140 140 155 140 140 155 140 140 155 139 139 
155 139 139 154 139 139 154 138 138 154 138 138 153 138 138 153 138 138 153 137 137 152 137 137 152 137 137 152 137 137 151 136 136 
151 136 136 151 136 136 151 135 135 150 135 135 150 135 135 150 135 135 149 134 134 149 134 134 149 134 134 148 133 133 148 133 133 
0 0 0 
178 160 160 177 160 160 177 159 159 177 159 159 177 159 159 176 159 159 176 158 158 176 158 158 176 158 158 175 158 158 175 157 157 
175 157 157 174 157 157 174 157 157 174 156 156 174 156 156 173 156 156 173 156 156 173 155 155 172 155 155 172 155 155 172 155 155 
172 154 154 171 154 154 171 154 154 171 154 154 170 153 153 170 153 153 170 153 153 170 153 153 169 152 152 169 152 152 169 152 152 
168 152 152 168 151 151 168 151 151 168 151 151 167 151 151 167 150 150 167 150 150 166 150 150 166 149 149 166 149 149 166 149 149 
165 149 149 165 148 148 165 148 148 164 148 148 164 148 148 164 147 147 164 147 147 163 147 147 163 147 147 163 146 146 162 146 146 
162 146 146 162 146 146 161 145 145 161 145 145 161 145 145 161 144 144 160 144 144 160 144 144 160 144 144 159 143 143 159 143 143 
159 143 143 158 143 143 158 142 142 158 142 142 158 142 142 157 141 141 157 141 141 157 141 141 156 141 141 156 140 140 156 140 140 
155 140 140 155 140 140 155 139 139 155 139 139 154 139 139 154 138 138 154 138 138 153 138 138 153 138 138 153 137 137 152 137 137 
152 137 137 152 137 137 151 136 136 151 136 136 151 136 136 151 135 135 150 135 135 150 135 135 150 135 135 149 134 134 149 134 134 
0 0 0 
0 0 0 0 0 0 0 0 0 0 0 0 0 0 0 0 0 0 0 0 0 0 0 0 0 0 0 0 0 0 0 0 0 
0 0 0 0 0 0 0 0 0 0 0 0 0 0 0 0 0 0 0 0 0 0 0 0 0 0 0 0 0 0 0 0 0 
0 0 0 0 0 0 0 0 0 0 0 0 0 0 0 0 0 0 0 0 0 0 0 0 0 0 0 0 0 0 0 0 0 
0 0 0 0 0 0 0 0 0 0 0 0 0 0 0 0 0 0 0 0 0 0 0 0 0 0 0 0 0 0 0 0 0 
0 0 0 0 0 0 0 0 0 0 0 0 0 0 0 0 0 0 0 0 0 0 0 0 0 0 0 0 0 0 0 0 0 
0 0 0 0 0 0 0 0 0 0 0 0 0 0 0 0 0 0 0 0 0 0 0 0 0 0 0 0 0 0 0 0 0 
0 0 0 0 0 0 0 0 0 0 0 0 0 0 0 0 0 0 0 0 0 0 0 0 0 0 0 0 0 0 0 0 0 
0 0 0 0 0 0 0 0 0 0 0 0 0 0 0 0 0 0 0 0 0 0 0 0 0 0 0 0 0 0 0 0 0 
0 0 0 0 0 0 0 0 0 0 0 0 0 0 0 0 0 0 0 0 0 0 0 0 0 0 0 0 0 0 0 0 0 
0 0 0
